<svg xmlns="http://www.w3.org/2000/svg" width="38" height="40" viewBox="0 0 38 40">
    <g fill="none" fill-rule="evenodd">
        <g fill="#04BCA6">
            <g>
                <path fill-rule="nonzero" d="M24.553 5.66c-.527-1.978-1.785-3.626-3.542-4.643C19.861.352 18.552 0 17.225 0c-2.725 0-5.258 1.46-6.611 3.809l-4.797 8.325-.001.003-.001.002-4.797 8.326c-2.098 3.643-.848 8.317 2.786 10.42 1.15.665 2.459 1.017 3.786 1.017 2.485 0 4.817-1.206 6.239-3.225l.036-.057 9.932-17.182c1.014-1.754 1.282-3.806.756-5.779zM12.571 27.827c-1.14 1.6-2.999 2.555-4.98 2.555-1.062 0-2.11-.281-3.029-.813-2.91-1.685-3.912-5.428-2.231-8.346l4.419-7.67 1.64.95h.001l8.904 5.152-4.724 8.172zm9.914-17.151l-4.43 7.664-8.25-4.773-1.313-.76-.984-.57 4.418-7.67c1.084-1.88 3.114-3.049 5.299-3.049 1.061 0 2.109.281 3.028.813 1.407.814 2.414 2.135 2.836 3.72.421 1.58.207 3.222-.604 4.625z" transform="translate(-802 -2467) translate(802 2467)"/>
                <path d="M18.612 29.149L18.612 36.331 23.044 38.127 30.134 38.127 35.452 37.229 37.224 36.331 37.224 29.149 37.224 28.251 34.566 27.353 29.248 26.455 23.044 27.353z" opacity=".3" transform="translate(-802 -2467) translate(802 2467)"/>
                <path fill-rule="nonzero" d="M34.718 26.472c-1.831-.513-4.246-.795-6.8-.795-2.553 0-4.968.282-6.799.795-2.175.61-3.28 1.467-3.282 2.55v6.535c0 1.086 1.102 1.945 3.277 2.554 1.827.512 4.244.794 6.804.794 2.56 0 4.977-.282 6.805-.794C36.897 37.502 38 36.643 38 35.557v-6.528-.004c0-1.084-1.104-1.943-3.282-2.553zM21.53 27.885c1.701-.476 3.97-.738 6.387-.738 2.419 0 4.687.262 6.388.738 1.808.507 2.192 1.05 2.194 1.14v.001c-.003.09-.388.633-2.194 1.138-1.701.477-3.97.739-6.388.739-2.418 0-4.686-.262-6.387-.739-1.813-.507-2.194-1.053-2.194-1.139 0-.086.381-.632 2.194-1.14zm14.97 7.672c0 .105-.39.637-2.19 1.141-1.698.475-3.968.737-6.393.737s-4.695-.262-6.392-.737c-1.8-.504-2.19-1.036-2.19-1.141v-4.653c.48.25 1.075.475 1.783.674 1.831.512 4.246.795 6.8.795 2.553 0 4.968-.283 6.799-.795.708-.199 1.302-.424 1.782-.674V35.557z" transform="translate(-802 -2467) translate(802 2467)"/>
                <path d="M6.756 12.667l11.822 6.755-5.911 9.29c-1.126 2.251-3.66 2.814-7.6 1.688C1.126 29.274 0 26.46 1.689 21.956l5.067-9.29z" transform="translate(-802 -2467) translate(802 2467)"/>
            </g>
        </g>
    </g>
</svg>
