<svg xmlns="http://www.w3.org/2000/svg" width="53" height="53" viewBox="0 0 53 53">
    <g fill="none" fill-rule="evenodd">
        <g>
            <g>
                <path d="M0 0L53 0 53 53 0 53z" transform="translate(-149 -1877) translate(149 1877)"/>
                <path fill="#04BCA6" fill-rule="nonzero" d="M28.082 35.274l14.3-11.384.352-.279c1.445-1.144 1.69-3.243.545-4.688-.159-.2-.34-.382-.54-.54L28.084 6.724c-1.217-.967-2.94-.967-4.156 0L9.26 18.39c-1.442 1.148-1.682 3.247-.534 4.69.156.197.335.376.532.533l.348.277 14.32 11.385c1.217.967 2.94.967 4.156-.001z" transform="translate(-149 -1877) translate(149 1877)"/>
                <path fill="#04BCA6" fill-rule="nonzero" d="M23.914 41.57L11.247 31.453c-.865-.69-2.122-.546-2.81.322l-.015.02c-.681.884-.52 2.154.359 2.838l.01.007 15.191 11.674c1.191.915 2.845.915 4.036 0L43.204 34.65c.89-.683 1.06-1.961.38-2.854l-.01-.012c-.682-.884-1.949-1.045-2.829-.359l-.019.015-12.677 10.13c-1.21.966-2.925.966-4.135 0z" opacity=".3" transform="translate(-149 -1877) translate(149 1877)"/>
            </g>
        </g>
    </g>
</svg>
