<svg xmlns="http://www.w3.org/2000/svg" width="40" height="27" viewBox="0 0 40 27">
    <g fill="none" fill-rule="evenodd">
        <g fill="#04BCA6" fill-rule="nonzero">
            <g>
                <path d="M39.44 12.402L32.1 1.473C31.483.553 30.443 0 29.328 0H10.673C9.558 0 8.518.553 7.899 1.473L.56 12.402C.196 12.945 0 13.584 0 14.237v8.925c0 1.827 1.492 3.309 3.333 3.309h33.334c1.84 0 3.333-1.482 3.333-3.31v-8.924c0-.653-.195-1.292-.56-1.835zm-28.172-7.99h17.465l5.925 8.823h-8.547l-2.222 4.412H16.11l-2.222-4.412H5.342l5.926-8.823z" transform="translate(-155 -3092) translate(155 3092)"/>
            </g>
        </g>
    </g>
</svg>
