<svg xmlns="http://www.w3.org/2000/svg" width="35" height="35" viewBox="0 0 35 35">
    <g fill="none" fill-rule="evenodd">
        <g fill="#FFF" fill-rule="nonzero">
            <g>
                <g>
                    <path d="M34.417 20.648h-1.79L31.5 4.535c-.021-.302-.276-.535-.583-.535h-3.5c-.308 0-.563.233-.584.535l-1.127 16.113H24.5v-3.444c0-.317-.261-.574-.583-.574-.133 0-.262.044-.365.126l-4.885 3.846v-3.398c0-.317-.261-.574-.583-.574-.133 0-.262.044-.365.126l-4.886 3.846v-3.398c0-.317-.26-.574-.583-.574-.132 0-.261.044-.364.126L7 20.602v-3.398c0-.317-.261-.574-.583-.574-.106 0-.21.028-.3.082L.282 20.156c-.176.104-.283.29-.283.492v13.778c0 .317.261.574.583.574h33.834c.322 0 .583-.257.583-.574V21.222c0-.317-.261-.574-.583-.574zm-6.456-15.5h2.41l1.087 15.5h-4.583l1.086-15.5zm-8.128 28.704v-6.889h3.5v6.889h-3.5zm14 0H24.5v-7.463c0-.317-.261-.574-.583-.574H19.25c-.322 0-.584.257-.584.574v7.463h-17.5V20.973l4.667-2.755v3.578c0 .318.261.574.583.575.133 0 .262-.045.365-.126l4.886-3.847v3.398c0 .318.26.574.583.575.132 0 .26-.045.365-.126l4.885-3.846v3.397c0 .318.26.575.583.575.133 0 .261-.045.365-.126l4.885-3.846v2.823c0 .318.261.574.584.574h9.916v12.056zM19.554 1c.202.098.384.225.54.376.311.342.755.565 1.24.624.513-.059.981-.291 1.31-.65.14-.133.297-.25.469-.35.114.005.413.257.574.393.3.333.73.55 1.203.607.545-.062 1.044-.308 1.395-.689.136-.115.342-.29.382-.31.298 0 .367.088.55.326.241.41.712.668 1.228.673.306 0 .555-.224.555-.5s-.249-.5-.555-.5c-.112 0-.133-.007-.314-.241-.294-.477-.858-.769-1.464-.759-.45.056-.858.264-1.143.582-.184.157-.494.418-.61.42-.173-.093-.33-.207-.469-.339-.334-.366-.81-.603-1.333-.663-.481.06-.92.28-1.228.618-.156.15-.336.28-.534.382-.185-.095-.353-.215-.5-.355C20.527.29 20.065.06 19.558 0c-.306 0-.556.222-.557.499-.001.275.247.5.554.501z" transform="translate(-176 -1933) translate(150 1726) translate(26 207)"/>
                    <path d="M6.333 26H3.667c-.369 0-.667.28-.667.625v3.75c0 .345.298.625.667.625h2.666c.368 0 .667-.28.667-.625v-3.75C7 26.28 6.701 26 6.333 26zm-.666 3.75H4.333v-2.5h1.334v2.5zM11.333 26H8.667c-.369 0-.667.28-.667.625v3.75c0 .345.298.625.667.625h2.666c.368 0 .667-.28.667-.625v-3.75c0-.345-.299-.625-.667-.625zm-.666 3.75H9.333v-2.5h1.334v2.5z" transform="translate(-176 -1933) translate(150 1726) translate(26 207)"/>
                </g>
            </g>
        </g>
    </g>
</svg>
