<svg xmlns="http://www.w3.org/2000/svg" width="31" height="31" viewBox="0 0 31 31">
    <g fill="none" fill-rule="evenodd">
        <g fill="#FFF" fill-rule="nonzero">
            <g>
                <g>
                    <path d="M23.13 31H8.59c-.365 0-.66-.29-.66-.646V3.23C7.93 1.45 9.412 0 11.233 0h9.252c1.822 0 3.305 1.45 3.305 3.23v27.124c0 .357-.296.646-.661.646zM9.252 29.708h13.217V3.23c0-1.068-.89-1.937-1.983-1.937h-9.252c-1.093 0-1.982.869-1.982 1.937v26.48z" transform="translate(-958 -1938) translate(150 1726) translate(808 212)"/>
                    <path d="M28.992 31h-6.694c-.37 0-.67-.293-.67-.653 0-.361.3-.654.67-.654h6.694c.37 0 .67-.292.67-.653V16.28c0-.745-.426-1.417-1.11-1.752l-5.833-3.197c-.33-.162.268-1.33.599-1.17l5.832 3.198c1.142.558 1.85 1.676 1.85 2.922V29.04c0 1.08-.901 1.96-2.008 1.96zM8.703 31H2.008C.901 31 0 30.12 0 29.04V16.28c0-1.245.708-2.364 1.85-2.921l6.554-3.198c.33-.16.928 1.006.597 1.168l-6.554 3.198c-.682.334-1.108 1.007-1.108 1.753V29.04c0 .36.3.653.67.653h6.694c.37 0 .67.293.67.654 0 .36-.3.653-.67.653zM13.698 10.093c-.398 0-.721-.29-.721-.649v-5.19c0-.359.323-.65.72-.65.399 0 .722.291.722.65v5.19c0 .358-.323.649-.721.649zM17.302 10.093c-.398 0-.72-.29-.72-.649v-5.19c0-.359.322-.65.72-.65.398 0 .721.291.721.65v5.19c0 .358-.323.649-.72.649z" transform="translate(-958 -1938) translate(150 1726) translate(808 212)"/>
                    <path d="M17.392 7.93h-3.784c-.349 0-.631-.323-.631-.72 0-.399.282-.722.63-.722h3.785c.349 0 .631.323.631.721 0 .398-.282.721-.63.721zM18.804 31c-.365 0-.66-.3-.66-.67v-4.685c0-1.477-1.186-2.678-2.644-2.678-1.458 0-2.643 1.2-2.643 2.678v4.686c0 .37-.296.669-.661.669-.365 0-.661-.3-.661-.67v-4.685c0-2.215 1.779-4.017 3.965-4.017s3.965 1.802 3.965 4.017v4.686c0 .37-.296.669-.66.669zM18.804 14.419h-6.608c-.365 0-.661-.323-.661-.721 0-.398.296-.721.66-.721h6.61c.364 0 .66.323.66.72 0 .399-.296.722-.66.722zM18.804 18.023h-6.608c-.365 0-.661-.323-.661-.72 0-.399.296-.722.66-.722h6.61c.364 0 .66.323.66.721 0 .398-.296.721-.66.721zM5.888 27.395H3.484c-.331 0-.6-.323-.6-.72 0-.399.269-.722.6-.722h2.404c.331 0 .6.323.6.721 0 .398-.269.721-.6.721zM5.888 23.07H3.484c-.331 0-.6-.323-.6-.721 0-.398.269-.721.6-.721h2.404c.331 0 .6.323.6.72 0 .399-.269.722-.6.722zM5.888 19.465H3.484c-.331 0-.6-.323-.6-.72 0-.399.269-.722.6-.722h2.404c.331 0 .6.323.6.721 0 .398-.269.721-.6.721zM27.516 27.395h-2.404c-.331 0-.6-.323-.6-.72 0-.399.269-.722.6-.722h2.404c.331 0 .6.323.6.721 0 .398-.269.721-.6.721zM27.516 23.07h-2.404c-.331 0-.6-.323-.6-.721 0-.398.269-.721.6-.721h2.404c.331 0 .6.323.6.72 0 .399-.269.722-.6.722zM27.516 19.465h-2.404c-.331 0-.6-.323-.6-.72 0-.399.269-.722.6-.722h2.404c.331 0 .6.323.6.721 0 .398-.269.721-.6.721z" transform="translate(-958 -1938) translate(150 1726) translate(808 212)"/>
                </g>
            </g>
        </g>
    </g>
</svg>
