<svg xmlns="http://www.w3.org/2000/svg" width="65" height="40" viewBox="0 0 65 40">
    <g fill="none" fill-rule="evenodd">
        <g fill="#FFF" fill-rule="nonzero">
            <g>
                <path d="M1.52 32.88h21.933c.917 3.478 3.723 6.16 7.1 7.043.51.133 1.03-.165 1.165-.666.136-.501-.167-1.015-.676-1.148-1.374-.36-2.595-1.058-3.627-2.075-4.222-4.16-2.557-11.198 3.002-13.145.262-.091-.743.218 14.973-4.568l-4.526 14.43c-.852 2.717-3.037 4.735-5.844 5.398-.511.121-.827.627-.704 1.131.122.504.636.815 1.148.694 3.468-.82 6.167-3.312 7.22-6.668l.134-.426h20.661c.852 0 1.538-.689 1.52-1.533C64.623 13.959 50.22 0 32.5 0 15.146 0 .383 13.615 0 31.347c-.018.84.666 1.533 1.52 1.533zm61.564-1.877h-6.682c-.25-5.697-2.56-10.954-6.324-14.964l4.725-4.656c5.104 5.346 8.029 12.265 8.281 19.62zM33.452 1.891c7.498.224 14.536 3.097 20.003 8.166l-4.723 4.655c-4.193-3.822-9.572-6.02-15.28-6.237V1.89zm-.956 8.442h.006c11.861 0 21.448 9.182 21.993 20.67h-11.09l3.888-12.392c.192-.616.025-1.28-.437-1.735-.461-.455-1.136-.62-1.76-.43-16.248 4.949-15.532 4.673-16.634 5.242-3.592 1.857-5.53 5.581-5.309 9.315H10.504c.56-11.595 10.259-20.67 21.992-20.67zm-.948-8.443v6.585c-5.838.223-11.171 2.492-15.28 6.237l-4.714-4.645c5.78-5.215 12.498-7.963 19.994-8.177zm-21.351 9.493l4.724 4.656c-3.773 4.025-6.073 9.274-6.324 14.964H1.915c.251-7.353 3.176-14.27 8.282-19.62z" transform="translate(-1126 -1055) translate(1126 1055)"/>
                <path d="M37.827 33.864c.303-.446.198-1.06-.235-1.372-.432-.312-1.029-.204-1.332.242-1.057 1.556-3.202 1.733-4.489.408-1.146-1.181-1.146-3.103 0-4.284 1.287-1.326 3.432-1.147 4.49.409.302.445.899.553 1.331.241.433-.312.538-.926.235-1.372-1.743-2.561-5.282-2.862-7.408-.67-1.892 1.948-1.892 5.12 0 7.069 2.13 2.195 5.671 1.884 7.408-.671z" transform="translate(-1126 -1055) translate(1126 1055)"/>
            </g>
        </g>
    </g>
</svg>
