<svg xmlns="http://www.w3.org/2000/svg" width="54" height="54" viewBox="0 0 54 54">
    <g fill="none" fill-rule="evenodd">
        <g fill="#FFF" fill-rule="nonzero">
            <g>
                <path d="M49.265 0H4.735C2.121.003.003 2.121 0 4.735v32.317c.003 2.615 2.121 4.733 4.735 4.736h14.288v7.333h-4.497c-.211 0-.413.084-.562.233-.15.149-.233.351-.233.562v3.29c0 .21.084.412.233.561.149.15.351.233.562.233h24.948c.211 0 .413-.084.562-.233.15-.149.233-.351.233-.562v-3.289c0-.21-.084-.413-.233-.562-.149-.15-.351-.233-.562-.233h-4.497v-7.333h14.288c2.614-.003 4.732-2.122 4.735-4.736V4.735C53.997 2.121 51.879.003 49.265 0zM38.679 52.411H15.321v-1.7h23.358v1.7zm-5.292-3.29H20.612v-7.333h12.775v7.333zM52.41 37.052c-.002 1.737-1.409 3.144-3.145 3.146H4.735C3 40.196 1.592 38.79 1.59 37.052V4.735C1.592 3 2.999 1.592 4.735 1.59h44.53c1.736.002 3.143 1.409 3.145 3.145v32.317z" transform="translate(-546 -1047) translate(546 1047)"/>
                <path d="M48.204 5H5.796c-.211 0-.414.084-.563.235-.15.15-.233.354-.233.566V36.2c0 .212.084.416.233.566.15.15.352.235.563.235h42.408c.211 0 .414-.084.563-.235.15-.15.233-.354.233-.566V5.8c0-.212-.084-.416-.233-.566-.15-.15-.352-.235-.563-.235zm-.796 30.397H6.592V6.603h40.816v28.794z" transform="translate(-546 -1047) translate(546 1047)"/>
                <path d="M27 32c6.075 0 11-4.925 11-11s-4.925-11-11-11-11 4.925-11 11c.007 6.072 4.928 10.993 11 11zm-8.833-7.905c1.302.75 2.724 1.269 4.203 1.535.266 1.479.786 2.9 1.537 4.203-2.683-.945-4.794-3.055-5.74-5.738zm3.926-5.976c-.217 1.914-.217 3.847 0 5.762-2.719-.663-4.463-1.812-4.463-2.881 0-1.07 1.744-2.219 4.463-2.881zM27 11.63c1.071 0 2.218 1.744 2.88 4.463-1.914-.217-3.846-.217-5.76 0 .662-2.719 1.81-4.463 2.88-4.463zm0 5.93c1.074 0 2.146.079 3.208.234.308 2.127.308 4.288 0 6.416-2.128.308-4.288.308-6.416 0-.308-2.128-.308-4.289 0-6.416 1.062-.155 2.134-.233 3.208-.233zM36.37 21c0 1.071-1.744 2.218-4.463 2.88.11-.956.164-1.917.163-2.88 0-.963-.054-1.925-.163-2.881 2.719.662 4.463 1.811 4.463 2.881zM27 30.37c-1.071 0-2.218-1.745-2.88-4.463 1.914.216 3.846.216 5.76 0-.662 2.718-1.809 4.463-2.88 4.463zm3.095-.537c.75-1.302 1.27-2.724 1.537-4.203 1.48-.266 2.901-.785 4.203-1.535-.946 2.683-3.057 4.793-5.74 5.738zm5.738-11.928c-1.302-.75-2.724-1.27-4.203-1.538-.266-1.479-.786-2.9-1.537-4.202 2.684.946 4.794 3.056 5.74 5.74zm-11.928-5.738c-.75 1.302-1.27 2.724-1.537 4.203-1.48.266-2.901.787-4.203 1.537.946-2.684 3.057-4.794 5.74-5.74z" transform="translate(-546 -1047) translate(546 1047)"/>
            </g>
        </g>
    </g>
</svg>
