<svg xmlns="http://www.w3.org/2000/svg" width="54" height="54" viewBox="0 0 54 54">
    <g fill="none" fill-rule="evenodd">
        <g fill="#FFF" fill-rule="nonzero">
            <g>
                <path d="M53.834 26.488l-4.056-5.594.72-6.87c.038-.376-.168-.734-.513-.887l-6.313-2.809-2.808-6.313c-.155-.344-.512-.55-.887-.513l-6.872.719L27.511.166c-.305-.221-.717-.221-1.022 0L20.894 4.22l-6.871-.719c-.375-.035-.73.17-.887.512l-2.809 6.313-6.312 2.81c-.345.153-.552.51-.512.886l.718 6.871-4.055 5.594c-.221.305-.221.718 0 1.023l4.055 5.594-.718 6.872c-.04.375.167.733.512.886l6.312 2.809 2.81 6.313c.154.342.51.549.886.513l6.871-.72 5.595 4.056c.305.221.717.221 1.022 0l5.594-4.055 6.872.719c.375.037.732-.169.887-.512l2.808-6.313 6.313-2.81c.344-.153.55-.51.512-.886l-.719-6.871 4.056-5.594c.221-.305.221-.719 0-1.024zm-5.661 5.864c-.127.174-.184.389-.162.602l.687 6.574-6.04 2.689c-.198.087-.356.244-.443.441l-2.687 6.04-6.575-.687c-.214-.022-.428.036-.601.162L27 52.053l-5.353-3.88c-.148-.108-.327-.167-.51-.166-.03 0-.062 0-.088.004l-6.575.687-2.687-6.04c-.088-.197-.245-.355-.443-.442l-6.043-2.688.686-6.574c.022-.213-.035-.428-.16-.602L1.946 27l3.88-5.353c.125-.174.182-.388.16-.602l-.686-6.574 6.04-2.689c.197-.086.355-.244.442-.441L14.47 5.3l6.576.687c.213.021.427-.036.601-.162L27 1.946l5.353 3.88c.173.126.387.183.6.162l6.576-.687 2.687 6.04c.088.197.245.355.443.442l6.04 2.688-.687 6.574c-.022.214.035.428.162.602L52.052 27l-3.88 5.352z" transform="translate(-839 -1047) translate(839 1047)"/>
                <path d="M37.322 17.25c-.335-.333-.878-.333-1.214 0L22.15 31.117 17.898 26.9c-.335-.332-.877-.332-1.212 0l-2.434 2.403c-.161.16-.252.377-.252.603 0 .227.09.444.252.604l7.288 7.24c.335.332.878.332 1.214 0l16.995-16.884c.335-.332.335-.872 0-1.205l-2.427-2.412zM22.15 35.943l-6.073-6.033 1.214-1.203 4.253 4.216c.335.333.878.333 1.213 0l13.96-13.865 1.215 1.207-15.782 15.678z" transform="translate(-839 -1047) translate(839 1047)"/>
            </g>
        </g>
    </g>
</svg>
