<svg xmlns="http://www.w3.org/2000/svg" width="50" height="58" viewBox="0 0 50 58">
    <g fill="none" fill-rule="evenodd">
        <g fill="#FFF" fill-rule="nonzero">
            <g>
                <path d="M32.713 37.61c.11-.177.22-.35.33-.531 4.938-8.114 7.422-15.212 7.387-21.094C40.384 7.561 33.49.755 25.003.754 16.515.752 9.619 7.556 9.57 15.98c-.036 5.887 2.449 12.986 7.387 21.099.11.18.22.354.33.532C6.891 38.886 0 42.573 0 46.95c0 5.497 10.98 9.803 25 9.803s25-4.306 25-9.802c0-4.379-6.892-8.066-17.287-9.341zM11.234 15.986c-.028-4.9 2.59-9.44 6.862-11.898s9.542-2.457 13.813.003c4.27 2.46 6.887 7 6.857 11.9C38.837 27.718 27.792 42.18 25 45.649c-2.792-3.468-13.838-17.932-13.766-29.663zM25 55.103c-13.96 0-23.337-4.215-23.337-8.151 0-3.491 6.953-6.74 16.604-7.792 1.867 2.892 3.903 5.673 6.1 8.327.157.185.389.292.633.292s.476-.107.634-.292c2.196-2.654 4.233-5.435 6.1-8.327 9.648 1.053 16.603 4.299 16.603 7.792 0 3.936-9.377 8.15-23.337 8.15z" transform="translate(-256 -1045) translate(256 1045.246)"/>
                <path d="M18.3 50.149c-3.568-.458-6.432-1.264-8.063-2.269-.245-.156-.555-.169-.811-.032-.257.138-.42.403-.426.694-.006.291.145.563.395.711 1.821 1.122 4.912 2.008 8.702 2.494.034.005.068.007.103.007.423-.003.772-.333.798-.756.027-.423-.278-.794-.697-.85zM26.19 50.781c-1.102.031-2.25.024-3.37-.027-.282-.013-.549.162-.699.457-.15.296-.161.668-.03.976.133.308.389.506.671.52.695.03 1.401.047 2.1.047.46 0 .915-.007 1.366-.02.436-.013.782-.46.772-.999-.002-.26-.09-.508-.242-.687-.152-.18-.357-.276-.568-.267zM32 16.753c0-3.866-3.135-7-7-7-3.867.001-7 3.135-7 7.001 0 3.866 3.135 7 7 7 3.865-.005 6.996-3.137 7-7.001zm-12.342 0c0-2.95 2.393-5.342 5.343-5.342s5.342 2.393 5.342 5.343S27.95 22.096 25 22.096c-2.949-.003-5.339-2.394-5.342-5.343z" transform="translate(-256 -1045) translate(256 1045.246)"/>
            </g>
        </g>
    </g>
</svg>
