<svg xmlns="http://www.w3.org/2000/svg" width="33" height="33" viewBox="0 0 33 33">
    <g fill="none" fill-rule="evenodd">
        <g fill="#FFF" fill-rule="nonzero">
            <g>
                <g>
                    <path d="M32.45 19.468h-1.687L29.7 4.276c-.02-.285-.26-.505-.55-.505h-3.3c-.29 0-.53.22-.55.505l-1.063 15.192H23.1v-3.247c0-.3-.246-.542-.55-.542-.125 0-.246.042-.344.119L17.6 19.424v-3.203c0-.3-.246-.542-.55-.542-.125 0-.246.042-.344.119L12.1 19.424v-3.203c0-.3-.246-.542-.55-.542-.125 0-.246.042-.344.119L6.6 19.424v-3.203c0-.3-.246-.541-.55-.541-.1 0-.198.026-.283.077l-5.5 3.247c-.166.098-.267.274-.267.464v12.99c0 .3.246.542.55.542h31.9c.304 0 .55-.242.55-.541v-12.45c0-.298-.246-.54-.55-.54zM26.364 4.854h2.272l1.025 14.614h-4.322l1.025-14.614zM18.7 31.918v-6.496H22v6.496h-3.3zm13.2 0h-8.8V24.88c0-.299-.246-.541-.55-.541h-4.4c-.304 0-.55.242-.55.54v7.038H1.1V19.775l4.4-2.598v3.374c0 .299.246.541.55.542.125 0 .246-.043.344-.12L11 17.348v3.204c0 .299.246.541.55.542.125 0 .246-.043.344-.12l4.606-3.626v3.204c0 .299.246.542.55.542.125 0 .246-.043.344-.12L22 17.348v2.663c0 .299.246.541.55.541h9.35v11.367zM18.436.943c.19.092.363.212.51.354.293.323.711.533 1.17.589.483-.056.924-.275 1.234-.613.132-.125.28-.236.442-.33.108.004.39.242.542.37.282.315.688.52 1.133.573.515-.059.985-.291 1.316-.65.128-.108.323-.273.36-.293.281 0 .346.084.519.308.227.387.671.63 1.157.635.29 0 .524-.211.524-.472 0-.26-.235-.47-.524-.47-.105 0-.125-.007-.295-.229-.278-.45-.81-.724-1.38-.715-.424.053-.81.25-1.078.549-.174.148-.466.394-.577.396-.162-.088-.31-.196-.44-.32C22.732.28 22.283.057 21.791 0c-.454.056-.868.264-1.158.583-.147.142-.317.263-.504.36-.174-.09-.333-.203-.47-.335-.307-.334-.743-.551-1.22-.608-.29 0-.525.21-.526.47 0 .26.233.472.522.473z" transform="translate(-167 -3817) translate(150 3700) translate(17 117)"/>
                    <path d="M5.972 24.514H3.457c-.347 0-.628.264-.628.59v3.535c0 .326.28.59.628.59h2.515c.346 0 .628-.264.628-.59v-3.536c0-.325-.282-.589-.628-.589zm-.63 3.536H4.087v-2.357h1.257v2.357zM10.686 24.514H8.172c-.348 0-.63.264-.63.59v3.535c0 .326.282.59.63.59h2.514c.347 0 .628-.264.628-.59v-3.536c0-.325-.281-.589-.628-.589zm-.629 3.536H8.8v-2.357h1.257v2.357z" transform="translate(-167 -3817) translate(150 3700) translate(17 117)"/>
                </g>
            </g>
        </g>
    </g>
</svg>
