<svg xmlns="http://www.w3.org/2000/svg" width="33" height="33" viewBox="0 0 33 33">
    <g fill="none" fill-rule="evenodd">
        <g fill="#FFF" fill-rule="nonzero">
            <g>
                <g>
                    <path d="M31.346 28.232V16.09c-.004-3.915-3.21-7.088-7.168-7.091h-.612c-.34-.33-.738-.594-1.174-.78l.436-1.62c.039-.14.02-.288-.053-.413-.072-.125-.192-.216-.333-.253l-1.6-.426.43-1.582c.12-.048.236-.105.348-.169.636-.36 1.099-.957 1.285-1.658.077-.289-.095-.586-.386-.666L17.193.02c-.296-.078-.599.095-.678.387-.19.698-.092 1.442.275 2.067.067.108.141.212.22.311l-.43 1.593-1.598-.425c-.294-.077-.595.097-.673.387l-2.856 10.54c-.038.139-.019.288.055.413s.195.216.337.252l1.064.283-.425 1.582c-.039.14-.021.289.05.415.076.123.196.213.336.25l.535.143-.43 1.582c-.037.14-.018.289.055.414s.195.216.336.251l2.129.568c.047.01.095.016.143.016.097.002.192-.023.276-.071.127-.072.22-.192.259-.333l.424-1.582.535.142c.046.016.095.023.143.022.098 0 .193-.027.276-.076.127-.07.218-.189.254-.328l.43-1.582 1.064.278c.046.015.095.023.143.022.25.001.47-.164.535-.403l.436-1.62c.152.017.304.026.457.027 1.004-.006 1.967-.397 2.685-1.091h.623c.913.002 1.652.734 1.654 1.636v8.167l-5.513.016v-.546c0-.3-.247-.545-.551-.545H9.843c-.304 0-.551.244-.551.545v2.182c0 .302.247.546.551.546h9.925c.304 0 .55-.244.55-.546v-.545l5.514-.016v2.198H6.535c-2.13.002-3.857 1.71-3.86 3.818v1.091c0 .302.248.546.552.546h29.222c.304 0 .551-.244.551-.546v-1.09c-.002-1.249-.62-2.418-1.654-3.132zM21.609 2.321c-.141.2-.326.369-.54.49-.378.22-.83.278-1.252.164l-1.064-.283c-.678-.177-1.17-.76-1.224-1.451l4.08 1.08zM20.076 4.11l-.297 1.113-2.134-.562.303-1.108c.167.079.34.143.518.191l1.064.284c.18.046.362.073.546.082zm-4.83 15.727l-1.064-.284.287-1.053.855.224.21.06-.288 1.053zm1.638-1.828l-3.192-.845.28-1.053 3.199.846-.287 1.052zm2.172-1.685l-6.395-1.691 2.569-9.487 6.39 1.697-.292 1.096c-1.904-.225-3.686.967-4.185 2.799-.495 1.832.444 3.746 2.206 4.495l-.293 1.09zm4.477-3.895c-.288 1.066-1.196 1.855-2.302 2-1.106.144-2.19-.385-2.748-1.34-.37-.624-.469-1.37-.276-2.068.322-1.193 1.415-2.023 2.663-2.023.24-.002.48.03.712.092.527.139 1.001.43 1.361.835v.005c.12.133.226.277.315.431.369.625.468 1.37.275 2.068zm-4.317 12.934h-8.821v-1.091h8.821v1.09zm5.128-11.985c.107-.213.192-.436.253-.665.242-.871.157-1.799-.237-2.613 3.274.097 5.879 2.749 5.883 5.99v11.613c-.358-.103-.73-.156-1.102-.158h-2.206V16.089c-.004-1.439-1.14-2.626-2.591-2.71zm7.553 18.531H3.778v-.546c0-1.506 1.235-2.727 2.757-2.727h22.606c1.522 0 2.756 1.221 2.756 2.727v.546z" transform="translate(-167 -3930) translate(150 3700) translate(17 230)"/>
                    <path d="M5.723 19.8c0 .887.699 1.605 1.56 1.605h4.163c.287 0 .52-.24.52-.535 0-.295-.233-.535-.52-.535H7.284c-.288 0-.52-.24-.52-.535v-6.982c3.335-.287 5.857-3.227 5.717-6.666C12.341 2.714 9.59 0 6.243 0 2.897 0 .145 2.714.006 6.152c-.14 3.439 2.382 6.38 5.717 6.666V19.8zM1.041 6.425c0-2.955 2.329-5.35 5.202-5.35 2.874 0 5.203 2.395 5.203 5.35 0 2.955-2.33 5.35-5.203 5.35-2.872-.003-5.2-2.396-5.202-5.35z" transform="translate(-167 -3930) translate(150 3700) translate(17 230)"/>
                    <path d="M7.263 9.301c0-.281-.229-.51-.51-.51V8.21c.182-.047.357-.12.52-.216l.412.412c-.13.129-.18.317-.133.493.048.175.185.313.36.36.177.047.364-.003.493-.132l.721-.72c.2-.2.2-.522 0-.721-.198-.2-.521-.2-.72 0l-.413-.413c.097-.162.17-.337.216-.52h.583c0 .282.228.51.51.51.28 0 .509-.228.509-.51V5.735c0-.282-.228-.51-.51-.51-.281 0-.51.228-.51.51H8.21c-.047-.183-.12-.358-.216-.52l.412-.413c.2.2.522.2.721 0 .2-.199.199-.522 0-.72l-.72-.72c-.2-.2-.523-.2-.722 0-.199.199-.199.521 0 .72l-.412.413c-.162-.097-.337-.17-.52-.217v-.582c.282 0 .51-.228.51-.51 0-.281-.228-.51-.51-.51H5.735c-.282 0-.51.229-.51.51 0 .282.228.51.51.51v.582c-.183.047-.358.12-.52.217l-.412-.413c.2-.199.2-.521 0-.72-.199-.2-.522-.2-.72 0l-.722.72c-.199.199-.2.522 0 .72.199.2.522.2.72 0l.413.414c-.096.162-.169.336-.216.519h-.582c0-.282-.228-.51-.51-.51-.281 0-.51.228-.51.51v1.019c0 .281.229.51.51.51.282 0 .51-.229.51-.51h.582c.047.182.12.357.217.52l-.413.412c-.199-.199-.522-.199-.72 0-.2.2-.2.522 0 .721l.72.72c.13.13.317.18.493.133.176-.048.313-.185.36-.361.048-.176-.003-.364-.132-.492l.413-.413c.162.097.336.17.519.216v.583c-.282 0-.51.228-.51.51 0 .28.228.509.51.509h1.019c.281 0 .51-.228.51-.51zm-2.04-3.058c0-.563.457-1.02 1.02-1.02s1.02.457 1.02 1.02-.457 1.02-1.02 1.02-1.02-.457-1.02-1.02zM21.851 12.486c-.739 0-1.337-.598-1.337-1.337 0-.74.598-1.338 1.337-1.338.74 0 1.338.599 1.338 1.338 0 .739-.599 1.337-1.338 1.337zm0-1.783c-.246 0-.446.2-.446.446s.2.446.446.446c.247 0 .446-.2.446-.446 0-.247-.2-.446-.446-.446z" transform="translate(-167 -3930) translate(150 3700) translate(17 230)"/>
                </g>
            </g>
        </g>
    </g>
</svg>
