<svg xmlns="http://www.w3.org/2000/svg" width="32" height="34" viewBox="0 0 32 34">
    <g fill="none" fill-rule="evenodd">
        <g fill="#FFF" fill-rule="nonzero">
            <g>
                <g>
                    <path d="M13.3 20.8h-2.1v-2.1c0-.387-.313-.7-.7-.7-.387 0-.7.313-.7.7v2.1H7.7c-.387 0-.7.313-.7.7 0 .386.313.7.7.7h2.1v2.1c0 .387.313.7.7.7.386 0 .7-.313.7-.7v-2.1h2.1c.387 0 .7-.313.7-.7 0-.387-.313-.7-.7-.7z" transform="translate(-558 -3929) translate(150 3700) translate(408 229)"/>
                    <path d="M31.286 21.382c-1.472-2.543-4.726-3.413-7.276-1.945l-2.704 1.558v-5.767c0-.713-.237-1.42-.666-1.992L17.311 8.81V6.924c.775-.274 1.332-1.012 1.332-1.877V1.992C18.643.894 17.747 0 16.645 0H4.661C3.559 0 2.663.894 2.663 1.992v3.055c0 .865.557 1.603 1.332 1.878V8.81l-3.33 4.426C.237 13.808 0 14.516 0 15.228v12.86c0 1.831 1.493 3.32 3.329 3.32h10.7c1.493 2.496 4.712 3.332 7.235 1.878l8.073-4.648c2.527-1.455 3.428-4.7 1.95-7.256zM3.995 1.992c0-.366.299-.664.666-.664h11.984c.367 0 .666.298.666.664v3.055c0 .366-.299.664-.666.664H4.661c-.367 0-.666-.298-.666-.664V1.992zM1.73 14.032L5.193 9.43c.087-.115.133-.255.133-.398V7.039H15.98v1.328H9.987c-.368 0-.666.297-.666.664 0 .367.298.664.666.664h6.325l3.262 4.338c.214.284.346.623.386.974H1.346c.04-.35.172-.69.385-.974zM3.33 30.08c-1.101 0-1.997-.893-1.997-1.992v-.67h12.096c-.21.86-.21 1.78.032 2.663H3.33zm10.621-3.984H1.332v-9.76h18.642v5.425l-4.036 2.325c-.842.484-1.522 1.175-1.988 2.01zm6.649 6.04c-1.911 1.1-4.353.45-5.457-1.457-1.11-1.925-.437-4.35 1.462-5.443l3.614-2.081 3.995 6.9-3.614 2.081zm8.072-4.648l-3.305 1.903-3.995-6.9 3.305-1.903c1.912-1.101 4.353-.45 5.457 1.458 1.109 1.916.435 4.35-1.462 5.442z" transform="translate(-558 -3929) translate(150 3700) translate(408 229)"/>
                </g>
            </g>
        </g>
    </g>
</svg>
