<svg xmlns="http://www.w3.org/2000/svg" width="33" height="33" viewBox="0 0 33 33">
    <g fill="none" fill-rule="evenodd">
        <g fill="#FFF" fill-rule="nonzero">
            <g>
                <g>
                    <path d="M22.55 23.833H22c-.146 0-.286.057-.389.158L16.5 29.002l-5.111-5.01c-.103-.102-.243-.159-.389-.159l-.605.003C3.692 24.493 0 27.554 0 32.461c0 .298.246.539.55.539.304 0 .55-.241.55-.54 0-4.824 3.964-6.68 7.803-7.34l-.595 1.169c-.136.266-.026.59.246.723l1.896.93v1.823c0 .238.16.448.392.516l5.108 1.503v.677c0 .298.246.539.55.539.304 0 .55-.241.55-.54v-.676l5.108-1.503c.232-.068.392-.278.392-.516V27.94l1.896-.926c.272-.133.382-.457.246-.724l-.593-1.164c3.863.666 7.801 2.526 7.801 7.334 0 .298.246.539.55.539.304 0 .55-.241.55-.54 0-4.906-3.692-7.967-10.45-8.627zm-11 5.53v-1.755c.001-.206-.117-.394-.304-.485l-1.708-.837.689-1.348c.074-.008.15-.02.223-.026h.322l5.178 5.076v.67l-4.4-1.295zm11.912-3.073l-1.708.837c-.186.09-.303.277-.304.48v1.756l-4.4 1.295v-.67l5.18-5.076h.265c.092.009.187.022.28.032l.687 1.346z" transform="translate(-946 -3928) translate(150 3700) translate(796 228)"/>
                    <path d="M6.245 18.844c2.043 1.48 4.434 2.427 6.95 2.754v1.694c0 .299.246.541.55.541.305 0 .551-.242.551-.541v-1.66c.686.34 1.437.537 2.204.576.767-.04 1.518-.235 2.204-.575v1.659c0 .299.246.541.55.541.305 0 .551-.242.551-.541v-1.694c2.516-.327 4.907-1.274 6.95-2.754 1.305-1.003.907-4.838-1.291-12.433l-.121-.42 1.034-2.54c.102-.25.001-.537-.236-.671C22.033.473 19.316 0 16.5 0s-5.533.473-9.64 2.78c-.24.134-.34.42-.24.671l1.035 2.54c-.03.11-.07.246-.12.42-2.197 7.595-2.595 11.43-1.29 12.433zm4.195-3.677v-2.894c3.04-.506 5.98-1.487 8.704-2.907.638.705 2.076 2.183 3.416 2.804v2.997c0 3.2-4.065 5.958-6.06 5.958-1.995 0-6.06-2.758-6.06-5.958zm-2.203-1.625c0-.599.493-1.084 1.101-1.084v2.167c-.608 0-1.101-.485-1.101-1.083zm15.425-1.084c.608 0 1.101.485 1.101 1.084 0 .598-.493 1.083-1.101 1.083v-2.167zM16.5 1.083c2.545 0 5.013.417 8.674 2.406L23.386 7.88C21.187 6.758 17.743 6.5 16.5 6.5c-1.243 0-4.687.258-6.886 1.38L7.826 3.49c3.66-1.99 6.13-2.407 8.674-2.407zM8.827 8.868c.061.152.19.269.35.317.16.048.332.022.47-.07C11.325 8 14.741 7.583 16.5 7.583c1.759 0 5.175.416 6.853 1.532.138.092.31.118.47.07.16-.048.289-.165.35-.317l.496-1.224c2.441 8.702 1.701 10.119 1.407 10.346-1.575 1.132-3.373 1.928-5.28 2.337 1.433-1.157 2.625-2.769 2.825-4.619h.04c1.218 0 2.204-.97 2.204-2.166 0-1.197-.986-2.167-2.203-2.167-1.014 0-2.982-1.874-3.984-3.056-.18-.212-.495-.257-.729-.104-.032.022-3.305 2.12-9.702 3.168-1.214.024-2.179 1.013-2.154 2.207.025 1.195 1.03 2.143 2.245 2.118h.04c.2 1.85 1.39 3.462 2.825 4.619-1.906-.41-3.705-1.205-5.28-2.337-.295-.227-1.035-1.644 1.406-10.346l.498 1.224z" transform="translate(-946 -3928) translate(150 3700) translate(796 228)"/>
                    <path d="M18.309 17.564c-.805.625-1.897.625-2.701 0-.158-.145-.377-.187-.572-.109-.195.078-.334.263-.364.482-.029.219.057.438.223.57 1.218.99 2.908.99 4.126 0 .167-.132.253-.351.223-.57-.03-.22-.169-.404-.364-.482-.194-.078-.413-.036-.571.11zM21.083 13.75c0 .506-.41.917-.916.917-.507 0-.917-.41-.917-.917 0-.506.41-.917.917-.917.506 0 .916.41.916.917zM13.75 13.75c0 .506-.41.917-.917.917-.506 0-.916-.41-.916-.917 0-.506.41-.917.916-.917.507 0 .917.41.917.917zM15.278 4.278h.61v.61c0 .338.275.612.612.612.337 0 .611-.274.611-.611v-.611h.611c.338 0 .611-.274.611-.611 0-.338-.273-.611-.61-.611h-.612v-.612c0-.337-.274-.61-.611-.61-.337 0-.611.273-.611.61v.612h-.611c-.338 0-.611.273-.611.61 0 .338.273.612.61.612z" transform="translate(-946 -3928) translate(150 3700) translate(796 228)"/>
                </g>
            </g>
        </g>
    </g>
</svg>
