<svg xmlns="http://www.w3.org/2000/svg" width="27" height="33" viewBox="0 0 27 33">
    <g fill="none" fill-rule="evenodd">
        <g fill="#FFF" fill-rule="nonzero">
            <g>
                <g>
                    <path d="M24.107 29.616c-.266 0-.482.217-.482.484 0 .266.216.483.482.483s.482-.217.482-.483c0-.267-.216-.484-.482-.484zm1.447-2.027V24.8c0-.97-.28-1.91-.81-2.72-.146-.223-.445-.286-.668-.14-.222.147-.284.447-.138.67.426.652.651 1.41.651 2.19v2.441c-.157-.026-.318-.04-.482-.04-.164 0-.325.014-.482.04V24.8c0-1.675-1.359-3.038-3.03-3.038-1.67 0-3.029 1.363-3.029 3.038v2.79c0 2.207-1.792 4.003-3.994 4.003s-3.993-1.796-3.993-4.003V26.15c.15.054.318.084.483.084.167 0 .328-.03.48-.084v1.439c0 1.674 1.36 3.037 3.03 3.037 1.67 0 3.03-1.363 3.03-3.037v-2.79c0-2.208 1.791-4.004 3.994-4.004.653 0 1.302.162 1.875.47.235.125.527.037.653-.199.126-.235.037-.528-.198-.654-.713-.382-1.519-.584-2.33-.584-2.734 0-4.959 2.23-4.959 4.971v2.79c0 1.141-.926 2.07-2.065 2.07-1.139 0-2.065-.929-2.065-2.07v-6.603c4.93-.713 8.614-4.96 8.614-9.982 0-.608-.396-1.17-.964-1.369v-4.64c0-1.665-1.102-3.096-2.67-3.536C16.328.629 15.597 0 14.722 0h-.964c-.992 0-1.8.81-1.8 1.805 0 .995.808 1.804 1.8 1.804h.964c.768 0 1.424-.484 1.683-1.164 1.06.378 1.789 1.387 1.789 2.55v4.642c-.562.203-.962.752-.964 1.391-.014 3.95-3.23 7.162-7.168 7.162-1.655 0-3.27-.581-4.549-1.637-.205-.17-.51-.14-.679.066-.169.207-.14.511.066.68 1.45 1.198 3.284 1.858 5.162 1.858 4.469 0 8.117-3.645 8.132-8.125 0-.268.204-.497.454-.511.272-.015.51.208.51.483 0 4.619-3.447 8.512-8.017 9.056-.34.04-.597.329-.597.672v4.051c.001.272-.236.496-.506.483-.253-.012-.458-.24-.458-.51v-4.024c0-.343-.257-.632-.597-.672C4.41 19.516.964 15.623.964 11.004c0-.275.238-.498.51-.483.25.014.454.243.455.51.005 1.62.485 3.183 1.387 4.523.149.221.448.28.67.13.22-.15.278-.45.13-.67-.796-1.181-1.218-2.56-1.223-3.986-.002-.64-.403-1.188-.964-1.39V4.995c0-1.163.73-2.172 1.789-2.55.258.68.914 1.164 1.682 1.164h.964c.993 0 1.8-.81 1.8-1.804C8.164.81 7.357 0 6.364 0H5.4c-.875 0-1.605.629-1.766 1.459-1.567.44-2.67 1.871-2.67 3.536v4.64c-.568.2-.964.762-.964 1.369 0 5.022 3.685 9.27 8.614 9.982v6.603c0 2.74 2.224 4.97 4.958 4.97s4.958-2.23 4.958-4.97v-2.79c0-1.142.927-2.07 2.066-2.07 1.138 0 2.065.928 2.065 2.07v2.79c-.864.503-1.447 1.44-1.447 2.51 0 1.6 1.298 2.901 2.893 2.901C25.702 33 27 31.699 27 30.1c0-1.072-.583-2.008-1.446-2.51zM14.72 2.643h-.964c-.46 0-.836-.376-.836-.838 0-.462.375-.838.836-.838h.964c.461 0 .836.376.836.838 0 .462-.375.838-.836.838zM5.4.967h.964c.461 0 .836.376.836.838 0 .462-.375.838-.836.838H5.4c-.46 0-.836-.376-.836-.838 0-.462.375-.838.836-.838zm18.707 31.066c-1.063 0-1.928-.867-1.928-1.933 0-1.067.865-1.934 1.928-1.934 1.064 0 1.929.867 1.929 1.934 0 1.066-.865 1.933-1.929 1.933z" transform="translate(-950 -3817) translate(150 3700) translate(800 117)"/>
                </g>
            </g>
        </g>
    </g>
</svg>
