<svg xmlns="http://www.w3.org/2000/svg" width="32" height="32" viewBox="0 0 32 32">
    <g fill="none" fill-rule="evenodd">
        <g fill="#FFF" fill-rule="nonzero">
            <g>
                <g>
                    <path d="M31.737 9.14L16.27.073c-.163-.095-.363-.098-.528-.007L.276 8.6c-.17.093-.276.272-.276.466v22.4c0 .296.239.534.533.534H3.2c.294 0 .533-.238.533-.533V12.8h24.534v18.667c0 .295.238.533.533.533h2.667c.295 0 .533-.238.533-.533V9.6c0-.19-.1-.364-.263-.46zm-.804 21.793h-1.6V12.266c0-.294-.238-.533-.533-.533H3.2c-.294 0-.533.24-.533.533v18.667h-1.6V9.381l14.925-8.235 14.941 8.76v21.027z" transform="translate(-557 -3816) translate(150 3700) translate(407 116)"/>
                    <path d="M26.5 25h-6c-.277 0-.5.223-.5.5v6c0 .277.223.5.5.5h6c.277 0 .5-.223.5-.5v-6c0-.277-.223-.5-.5-.5zm-.5 6h-5v-5h5v5z" transform="translate(-557 -3816) translate(150 3700) translate(407 116)"/>
                    <path d="M24.667 25v1.8h-1.334V25H22v2.4c0 .332.298.6.667.6h2.666c.369 0 .667-.268.667-.6V25h-1.333zM20.5 25h-6c-.276 0-.5.223-.5.5v6c0 .277.224.5.5.5h6c.277 0 .5-.223.5-.5v-6c0-.277-.223-.5-.5-.5zm-.5 6h-5v-5h5v5z" transform="translate(-557 -3816) translate(150 3700) translate(407 116)"/>
                    <path d="M17.667 25v1.8h-1.334V25H15v2.4c0 .332.299.6.667.6h2.666c.369 0 .667-.268.667-.6V25h-1.333zM26.5 18h-6c-.277 0-.5.223-.5.5v6c0 .277.223.5.5.5h6c.277 0 .5-.223.5-.5v-6c0-.277-.223-.5-.5-.5zm-.5 6h-5v-5h5v5z" transform="translate(-557 -3816) translate(150 3700) translate(407 116)"/>
                    <path d="M24.667 18v1.8h-1.334V18H22v2.4c0 .332.298.6.667.6h2.666c.369 0 .667-.268.667-.6V18h-1.333zM3 16H29V17H3zM3 14H29V15H3zM18.5 7h-5c-.276 0-.5.299-.5.667v2.666c0 .368.224.667.5.667h5c.277 0 .5-.299.5-.667V7.667c0-.368-.223-.667-.5-.667zM18 9.667h-4V8.333h4v1.334z" transform="translate(-557 -3816) translate(150 3700) translate(407 116)"/>
                </g>
            </g>
        </g>
    </g>
</svg>
