<svg xmlns="http://www.w3.org/2000/svg" xmlns:xlink="http://www.w3.org/1999/xlink" width="108" height="30" viewBox="0 0 108 30">
    <defs>
        <linearGradient id="ywe8bd6ssa" x1="3.178%" x2="109.447%" y1="48.203%" y2="53.668%">
            <stop offset="0%" stop-color="#61C8D5"/>
            <stop offset="100%" stop-color="#A1FDBE"/>
        </linearGradient>
        <path id="80cql1jxeb" d="M52.017 37.003c.617-.04 1.051.38 1.163.501l.028.032c.11.169.194.354.248.55L58.26 56.29l2.059-4.815s1.092-1.514 2.381 0l2.827 7.69h5.114s.968.1 1.216.806c0 0 .322.453 0 1.365-.278.453-.765.729-1.29.73h-6.009c-.1-.003-1.106-.066-1.412-1.056-.323-1.043-1.705-4.942-1.705-4.942l-2.287 5.34c-.284.491-.836.752-1.388.656 0 0-1.043.026-1.24-1.16l-1.63-6.23h-4.488L48.55 64.71l-.004.036c-.032.231-.257 1.503-1.385 1.503l-.02.001h-.054c-.273-.004-1.212-.127-1.476-1.577l-2.988-12.14-.718 1.992c-.305.704-1.04 1.11-1.786.984l-5.877-.026s-1.093-.028-1.241-1.361v-.025c.006-.174.089-1.182 1.265-1.412l5.282-.025 2.059-5.396s.418-.907 1.311-.857c.893.05 1.14.73 1.14.73l.002.002.013.014c.032.047.124.216.259.791.171.732 2.553 10.288 2.553 10.288l3.968-20.472s.445-.71 1.165-.756zM84.284 41c2.018 0 3.633.383 4.848 1.15 1.214.767 2.09 1.922 2.629 3.465.538 1.543.808 3.54.808 5.99 0 2.389-.26 4.34-.779 5.854-.519 1.514-1.385 2.654-2.6 3.42-1.214.767-2.85 1.15-4.906 1.15-2.017 0-3.633-.368-4.847-1.105-1.214-.737-2.09-1.867-2.63-3.39-.538-1.524-.807-3.5-.807-5.93 0-2.45.27-4.446.808-5.989.538-1.543 1.415-2.698 2.63-3.465 1.213-.767 2.83-1.15 4.846-1.15zm19.224 5.735c1.8 0 3.083.588 3.847 1.763.763 1.175 1.145 2.987 1.145 5.436v8.095h-3.935v-7.975l-.003-.288c-.021-1.222-.182-2.092-.482-2.61-.323-.557-.935-.836-1.835-.836-.646 0-1.38.14-2.203.418l-.352.12v11.171h-3.935V47.094h3.906v.836l.275-.158c.632-.355 1.202-.611 1.707-.768.577-.18 1.199-.269 1.865-.269zm22.198-5.098v3.599h-9.185v4.768h7.36v3.539h-7.36v4.888h9.185v3.598h-13.382V41.637h13.382zm6.193 5.736l2.395 4.543 2.425-4.543H141l-4.251 7.181L141 62.03h-4.281l-2.425-4.485-2.395 4.485h-4.281l4.101-7.357-4.101-7.3h4.28zm-47.933-2.55c-1.046 0-1.87.247-2.47.74-.602.494-1.031 1.25-1.288 2.267-.256 1.017-.384 2.382-.384 4.094 0 1.591.108 2.88.325 3.867.217.987.626 1.743 1.228 2.267.601.523 1.464.785 2.589.785 1.065 0 1.898-.226 2.5-.68.601-.453 1.025-1.178 1.272-2.175.247-.997.37-2.352.37-4.064 0-1.712-.128-3.077-.385-4.094-.256-1.017-.685-1.773-1.287-2.266-.601-.494-1.425-.74-2.47-.74zm-31.726-.106l-1.289 7.11h3.273l-1.984-7.11z"/>
    </defs>
    <g fill="none" fill-rule="evenodd">
        <g>
            <g>
                <g transform="translate(-183 -2707) translate(149 2513) translate(1 157)">
                    <use fill="url(#ywe8bd6ssa)" xlink:href="#80cql1jxeb"/>
                    <use fill="#000" fill-opacity=".088" style="mix-blend-mode:darken" xlink:href="#80cql1jxeb"/>
                </g>
            </g>
        </g>
    </g>
</svg>
