<svg xmlns="http://www.w3.org/2000/svg" width="50" height="41" viewBox="0 0 50 41">
    <g fill="none" fill-rule="evenodd">
        <g fill="#3C495A" fill-rule="nonzero">
            <g>
                <g>
                    <path d="M45.937 39.83H4.063C1.82 39.829.003 38.02 0 35.788V9.976c.003-2.233 1.82-4.041 4.063-4.044h41.874c2.243.003 4.06 1.811 4.063 4.044v25.81c-.003 2.233-1.82 4.042-4.063 4.045zM4.063 7.355c-1.454.001-2.633 1.174-2.634 2.622v25.81c.001 1.448 1.18 2.621 2.634 2.622h41.874c1.454 0 2.633-1.174 2.634-2.621V9.976c-.001-1.448-1.18-2.62-2.634-2.622H4.063z" transform="translate(-1134 -3214) translate(149 3106) translate(985 108)"/>
                    <path d="M40.807 39.83H9.193c-.397 0-.718-.318-.718-.71V6.642c0-.392.321-.71.718-.71h31.614c.397 0 .718.318.718.71V39.12c0 .393-.321.712-.718.712zM9.912 38.409h30.176V7.354H9.912v31.054z" transform="translate(-1134 -3214) translate(149 3106) translate(985 108)"/>
                    <path d="M26.833 30.508H22.32c-.404 0-.73-.327-.73-.73v-3.909h-3.91c-.404 0-.73-.327-.73-.73v-4.514c0-.404.326-.731.73-.731h3.91v-3.91c0-.403.326-.73.73-.73h4.513c.403 0 .73.327.73.73v3.91h3.91c.403 0 .73.327.73.73v4.513c0 .404-.327.731-.73.731h-3.91v3.908c0 .194-.076.38-.213.518-.137.137-.323.214-.517.214zm-3.782-1.46h3.051v-3.91c0-.403.327-.73.73-.73h3.91v-3.053h-3.91c-.403 0-.73-.327-.73-.73v-3.91h-3.051v3.91c0 .403-.328.73-.731.73h-3.91v3.052h3.91c.403 0 .73.327.73.73v3.91zM32.319 6.78H17.681c-.404 0-.732-.305-.732-.68V2.574C16.951 1.154 18.19.002 19.72 0H30.28c1.53.002 2.768 1.154 2.77 2.575V6.1c0 .376-.328.68-.732.68zM18.413 5.419h13.174V2.575c0-.67-.585-1.213-1.306-1.214H19.72c-.721 0-1.305.544-1.306 1.214V5.42z" transform="translate(-1134 -3214) translate(149 3106) translate(985 108)"/>
                </g>
            </g>
        </g>
    </g>
</svg>
