<svg xmlns="http://www.w3.org/2000/svg" width="47" height="47" viewBox="0 0 47 47">
    <g fill="none" fill-rule="evenodd">
        <g fill="#3C495A" fill-rule="nonzero">
            <g>
                <g>
                    <path d="M46.5 37c-.276 0-.5-.274-.5-.611v-1.778c0-.337.224-.611.5-.611s.5.274.5.611v1.778c0 .337-.224.611-.5.611z" transform="translate(-843 -3212) translate(149 3106) translate(694 106)"/>
                    <path d="M46.326 47H16.674c-.372 0-.674-.3-.674-.671V1.343C16 .6 16.603 0 17.348 0h28.304C46.397 0 47 .601 47 1.343v21.862c0 .37-.302.671-.674.671-.372 0-.674-.3-.674-.671V1.343H17.348v44.314h28.304v-4.404c0-.371.302-.672.674-.672.372 0 .674.3.674.672v5.076c0 .37-.302.671-.674.671z" transform="translate(-843 -3212) translate(149 3106) translate(694 106)"/>
                    <path d="M46.5 30c-.276 0-.5-.27-.5-.604v-1.792c0-.334.224-.604.5-.604s.5.27.5.604v1.792c0 .334-.224.604-.5.604zM40.956 9h-2.912C37.467 9 37 8.532 37 7.956V5.044c0-.576.467-1.043 1.044-1.044h2.912C41.533 4 42 4.468 42 5.044v2.912c0 .576-.467 1.043-1.044 1.044zM38.32 7.681h2.362V5.32H38.32V7.68zM32.956 9h-2.912c-.576 0-1.043-.468-1.044-1.044V5.044c0-.576.468-1.043 1.044-1.044h2.912c.576 0 1.043.468 1.044 1.044v2.912c0 .576-.468 1.043-1.044 1.044zm-2.637-1.319h2.362V5.32H30.32V7.68zM23.956 9h-2.912C20.467 9 20 8.532 20 7.956V5.044c0-.576.467-1.043 1.044-1.044h2.912C24.533 4 25 4.468 25 5.044v2.912c0 .576-.467 1.043-1.044 1.044zM21.32 7.681h2.362V5.32H21.32V7.68zM40.956 18h-2.912C37.467 18 37 17.532 37 16.956v-2.912c0-.576.467-1.043 1.044-1.044h2.912c.577 0 1.044.468 1.044 1.044v2.912c0 .576-.467 1.043-1.044 1.044zm-2.637-1.319h2.362V14.32H38.32v2.362zM32.956 18h-2.912c-.576 0-1.043-.468-1.044-1.044v-2.912c0-.576.468-1.043 1.044-1.044h2.912c.576 0 1.043.468 1.044 1.044v2.912c0 .576-.468 1.043-1.044 1.044zm-2.637-1.319h2.362V14.32H30.32v2.362zM23.956 18h-2.912C20.467 18 20 17.532 20 16.956v-2.912c0-.576.467-1.043 1.044-1.044h2.912c.577 0 1.044.468 1.044 1.044v2.912c0 .576-.467 1.043-1.044 1.044zm-2.637-1.319h2.362V14.32H21.32v2.362zM40.956 27h-2.912C37.467 27 37 26.532 37 25.956v-2.912c0-.576.467-1.043 1.044-1.044h2.912c.577 0 1.044.468 1.044 1.044v2.912c0 .576-.467 1.043-1.044 1.044zm-2.637-1.319h2.362V23.32H38.32v2.362zM32.956 27h-2.912c-.576 0-1.043-.468-1.044-1.044v-2.912c0-.576.468-1.043 1.044-1.044h2.912c.576 0 1.043.468 1.044 1.044v2.912c0 .576-.468 1.043-1.044 1.044zm-2.637-1.319h2.362V23.32H30.32v2.362zM23.956 27h-2.912C20.467 27 20 26.532 20 25.956v-2.912c0-.576.467-1.043 1.044-1.044h2.912c.577 0 1.044.468 1.044 1.044v2.912c0 .576-.467 1.043-1.044 1.044zm-2.637-1.319h2.362V23.32H21.32v2.362zM37.34 47H26.66c-.364 0-.66-.305-.66-.682V32.682c0-.377.296-.682.66-.682h10.68c.364 0 .66.305.66.682v13.636c0 .377-.296.682-.66.682zM27.32 45.636h9.358V33.364H27.32v12.272zM.654 47C.293 47 0 46.695 0 46.318V15.682C0 15.305.293 15 .654 15h15.692c.361 0 .654.305.654.682v30.634c0 .376-.293.681-.654.681L.654 47zm.654-30.637v29.274h14.384V16.363H1.308z" transform="translate(-843 -3212) translate(149 3106) translate(694 106)"/>
                    <path d="M12.995 25h-2.99c-.554-.002-1.003-.45-1.005-1.005v-2.99c.002-.554.451-1.003 1.005-1.005h2.99c.554.002 1.003.451 1.005 1.005v2.99c-.002.554-.45 1.003-1.005 1.005zm-2.553-1.441h2.116V21.44h-2.116v2.118zM6.995 25h-2.99c-.554-.002-1.003-.451-1.005-1.005v-2.99c.002-.554.45-1.003 1.005-1.005h2.99c.554.002 1.003.45 1.005 1.005v2.99c-.002.554-.451 1.003-1.005 1.005zm-2.553-1.441h2.116V21.44H4.442v2.118zM12.995 34h-2.99c-.554-.002-1.003-.45-1.005-1.005v-2.99c.002-.554.451-1.003 1.005-1.005h2.99c.554.002 1.003.451 1.005 1.005v2.99c-.002.554-.45 1.003-1.005 1.005zm-2.553-1.441h2.116V30.44h-2.116v2.118zM6.995 34h-2.99c-.554-.002-1.003-.451-1.005-1.005v-2.99c.002-.554.45-1.003 1.005-1.005h2.99c.554.002 1.003.45 1.005 1.005v2.99c-.002.554-.451 1.003-1.005 1.005zm-2.553-1.441h2.116V30.44H4.442v2.118zM12.995 42h-2.99C9.45 41.998 9 41.547 9 40.991v-2.986c.002-.554.451-1.003 1.005-1.005h2.99c.554.002 1.003.451 1.005 1.005v2.986c0 .556-.45 1.007-1.005 1.009zm-2.553-1.44h2.116v-2.12h-2.116v2.12zM6.995 42h-2.99C3.449 41.998 3 41.547 3 40.991v-2.986c.002-.554.45-1.003 1.005-1.005h2.99c.554.002 1.003.45 1.005 1.005v2.986c0 .556-.45 1.007-1.005 1.009zm-2.553-1.44h2.116v-2.12H4.442v2.12z" transform="translate(-843 -3212) translate(149 3106) translate(694 106)"/>
                </g>
            </g>
        </g>
    </g>
</svg>
