<svg xmlns="http://www.w3.org/2000/svg" width="43" height="48" viewBox="0 0 43 48">
    <g fill="none" fill-rule="evenodd">
        <g fill="#3C495A" fill-rule="nonzero">
            <g>
                <g>
                    <path d="M27.325 30.776l.27-.437c4.049-6.665 6.087-12.496 6.057-17.327C33.615 6.092 27.962.502 21.002.5 14.042.499 8.388 6.087 8.348 13.008c-.03 4.835 2.008 10.666 6.057 17.33.09.149.18.292.27.438C6.151 31.823.5 34.852.5 38.448.5 42.963 9.503 46.5 21 46.5s20.5-3.537 20.5-8.052c0-3.596-5.651-6.625-14.175-7.672zM9.712 13.012c-.023-4.025 2.124-7.755 5.627-9.774 3.503-2.019 7.824-2.018 11.326.002 3.502 2.02 5.648 5.75 5.623 9.776.059 9.632-8.999 21.512-11.288 24.361-2.29-2.849-11.347-14.729-11.288-24.365zM21 45.144c-11.447 0-19.136-3.462-19.136-6.696 0-2.867 5.701-5.535 13.615-6.4 1.53 2.376 3.2 4.66 5.001 6.84.13.152.32.24.52.24s.39-.088.52-.24c1.8-2.18 3.47-4.464 5.001-6.84 7.912.865 13.615 3.531 13.615 6.4 0 3.234-7.69 6.696-19.136 6.696z" transform="translate(-260 -3211) translate(149 3106) translate(111.5 105.5)"/>
                    <path d="M15.94 40.895c-2.854-.458-5.146-1.264-6.45-2.268-.196-.157-.444-.17-.65-.032-.205.137-.335.402-.34.693-.005.292.116.564.316.712 1.457 1.122 3.93 2.008 6.961 2.494.028.004.055.006.083.006.338-.002.617-.332.639-.755.021-.423-.223-.795-.558-.85zM27.5 12.5c0-3.314-2.687-6-6-6-3.314 0-6 2.687-6 6 0 3.314 2.687 6 6 6 3.313-.004 5.997-2.689 6-6zm-10.579 0c0-2.53 2.051-4.58 4.58-4.579 2.529 0 4.579 2.05 4.578 4.58 0 2.528-2.05 4.578-4.579 4.578-2.528-.003-4.576-2.052-4.579-4.58z" transform="translate(-260 -3211) translate(149 3106) translate(111.5 105.5)"/>
                </g>
            </g>
        </g>
    </g>
</svg>
