<svg xmlns="http://www.w3.org/2000/svg" width="43" height="43" viewBox="0 0 43 43">
    <g fill="none" fill-rule="evenodd">
        <g fill="#3C495A" fill-rule="nonzero">
            <g>
                <g>
                    <path d="M8.494 42.916c.362 0 .655-.28.655-.627V26.354c0-.937-.797-1.7-1.776-1.7H1.776c-.98 0-1.776.763-1.776 1.7v15.935c0 .347.293.627.655.627h7.84zM1.31 26.354c0-.246.21-.446.467-.446h5.597c.257 0 .466.2.466.446v15.308H1.31V26.354zM12.754 20.088c-.979 0-1.775.775-1.775 1.728V42.28c0 .352.293.637.654.637h7.84c.362 0 .655-.285.655-.637V21.816c0-.953-.797-1.728-1.776-1.728h-5.598zm6.064 1.728v19.826h-6.53V21.816c0-.25.21-.454.466-.454h5.598c.257 0 .466.204.466.454zM32.021 42.294v-24.17c0-.93-.796-1.688-1.775-1.688h-5.598c-.98 0-1.776.757-1.776 1.688v24.17c0 .344.294.622.655.622h7.84c.361 0 .654-.278.654-.622zm-1.309-.623h-6.53V18.124c0-.244.209-.443.466-.443h5.598c.257 0 .466.199.466.443v23.547zM34.506 42.916h7.84c.36 0 .654-.282.654-.63V13.58c0-.943-.797-1.71-1.776-1.71h-5.597c-.98 0-1.776.767-1.776 1.71v28.706c0 .348.293.63.655.63zm.654-29.336c0-.248.21-.449.467-.449h5.597c.257 0 .467.201.467.449v28.075h-6.53V13.58zM37.58 8.67c.283.407.764.615 1.255.545.491-.07.893-.406 1.05-.876l2.133-6.392c.13-.392.07-.811-.167-1.15-.236-.34-.61-.543-1.023-.558l-6.75-.238c-.498-.018-.952.241-1.19.676-.237.434-.209.956.074 1.363l.705 1.012C30.02 5.15 21.422 9.389 9.707 10.629c-.343.037-.59.343-.555.685.035.32.305.557.62.556.022 0 .044 0 .067-.003 12.63-1.337 21.722-6.1 25.045-8.085.305-.182.395-.597.192-.889L33.987 1.33c-.027-.038.001-.086.046-.085l6.75.238c.037.001.061.037.05.071l-2.132 6.392c-.014.043-.071.05-.096.014l-.966-1.386c-.188-.271-.556-.348-.837-.176-1.456.886-3.89 2.24-7.224 3.657-.317.135-.465.5-.33.816.136.316.502.464.819.329 3.044-1.293 5.36-2.54 6.88-3.437l.633.907z" transform="translate(-552 -3216) translate(149 3106) translate(403 110)"/>
                    <path d="M6.63 12.315c.347-.024.61-.348.587-.723-.023-.374-.323-.658-.67-.633-1.366.097-2.741.146-4.088.146-.348 0-.63.304-.63.68v4.884c0 .376.282.68.63.68 10.424 0 19.12-2.662 24.58-4.894.326-.133.49-.526.367-.877-.123-.35-.487-.528-.812-.395-5.252 2.148-13.552 4.7-23.505 4.803V12.46c1.171-.013 2.36-.062 3.541-.146z" transform="translate(-552 -3216) translate(149 3106) translate(403 110)"/>
                </g>
            </g>
        </g>
    </g>
</svg>
