<svg xmlns="http://www.w3.org/2000/svg" xmlns:xlink="http://www.w3.org/1999/xlink" width="87" height="30" viewBox="0 0 87 30">
    <defs>
        <linearGradient id="xndpe0un7a" x1="3.178%" x2="109.447%" y1="47.231%" y2="55.652%">
            <stop offset="0%" stop-color="#61C8D5"/>
            <stop offset="100%" stop-color="#A1FDBE"/>
        </linearGradient>
        <path id="jm5anjjamb" d="M52.017 37.003c.617-.04 1.051.38 1.163.501l.028.032c.11.169.194.354.248.55L58.26 56.29l2.059-4.815s1.092-1.514 2.381 0l2.827 7.69h5.114s.968.1 1.216.806c0 0 .322.453 0 1.365-.278.453-.765.729-1.29.73h-6.009c-.1-.003-1.106-.066-1.412-1.056-.323-1.043-1.705-4.942-1.705-4.942l-2.287 5.34c-.284.491-.836.752-1.388.656 0 0-1.043.026-1.24-1.16l-1.63-6.23h-4.488L48.55 64.71l-.004.036c-.032.231-.257 1.503-1.385 1.503l-.02.001h-.054c-.273-.004-1.212-.127-1.476-1.577l-2.988-12.14-.718 1.992c-.305.704-1.04 1.11-1.786.984l-5.877-.026s-1.093-.028-1.241-1.361v-.025c.006-.174.089-1.182 1.265-1.412l5.282-.025 2.059-5.396s.418-.907 1.311-.857c.893.05 1.14.73 1.14.73l.002.002.013.014c.032.047.124.216.259.791.171.732 2.553 10.288 2.553 10.288l3.968-20.472s.445-.71 1.165-.756zM85.372 41l3.764 15.287L92.901 41h7.372v21h-4.33V45.756h-.47l-4.172 15.318h-4.33L82.8 45.756h-.47V62H78V41h7.372zm27.116 0l.297.003c4.81.095 7.215 2.524 7.215 7.285 0 2.47-.636 4.355-1.91 5.652-1.272 1.297-3.14 1.945-5.602 1.945h-3.477V62h-4.284V41h7.76zM52.24 44.717l-1.289 7.11h3.273l-1.984-7.11zm60.243-.535h-3.301v7.636h3.3c2.042 0 3.063-1.324 3.063-3.973 0-1.283-.242-2.215-.728-2.794-.486-.58-1.264-.87-2.334-.87z"/>
    </defs>
    <g fill="none" fill-rule="evenodd">
        <g>
            <g>
                <g transform="translate(-573 -2707) translate(149 2513) translate(391 157)">
                    <use fill="url(#xndpe0un7a)" xlink:href="#jm5anjjamb"/>
                    <use fill="#000" fill-opacity=".088" style="mix-blend-mode:darken" xlink:href="#jm5anjjamb"/>
                </g>
            </g>
        </g>
    </g>
</svg>
