<?xml version="1.0" encoding="UTF-8"?>
<svg width="91px" height="30px" viewBox="0 0 91 30" version="1.1" xmlns="http://www.w3.org/2000/svg" xmlns:xlink="http://www.w3.org/1999/xlink">
    <title>Combined Shape</title>
    <defs>
        <linearGradient x1="3.17776741%" y1="47.4691194%" x2="109.44656%" y2="55.1657686%" id="linearGradient-1">
            <stop stop-color="#61C8D5" offset="0%"></stop>
            <stop stop-color="#A1FDBE" offset="100%"></stop>
        </linearGradient>
        <path d="M19.0172377,0.00267202759 C19.6342793,-0.0373241478 20.0682797,0.383043817 20.1796872,0.503965198 L20.2078621,0.535954365 C20.318168,0.704770853 20.4017906,0.890109931 20.4556903,1.08523517 L20.4556903,1.08523517 L25.2601481,19.290161 L27.3188268,14.4746215 C27.3188268,14.4746215 28.4111065,12.9614328 29.7000755,14.4746215 L29.7000755,14.4746215 L32.5271527,22.1645528 L37.6410679,22.1645528 C37.6410679,22.1645528 38.608778,22.2645432 38.8566062,22.9711423 C38.8566062,22.9711423 39.1791762,23.4244322 38.8566062,24.3363451 C38.5788111,24.7887248 38.0921659,25.0645588 37.5676374,25.0669418 L37.5676374,25.0669418 L31.5580015,25.0667052 C31.4581838,25.0629056 30.4523455,25.0001482 30.145904,24.0097096 C29.823334,22.9671427 28.4412656,19.0675156 28.4412656,19.0675156 L28.4412656,19.0675156 L26.1544276,24.4083382 C25.8704674,24.8989958 25.3177434,25.160083 24.7658029,25.0642755 C24.7658029,25.0642755 23.723351,25.0896064 23.5253507,23.9043864 L23.5253507,23.9043864 L21.8967653,17.6743155 L17.4083213,17.6743155 L15.5489542,27.7093559 L15.5489542,27.7093559 L15.5445712,27.7451892 C15.5129867,27.9763717 15.2880134,29.2478754 14.1603296,29.2478754 C14.1603296,29.2478754 14.1535232,29.2485704 14.1407932,29.2491654 L14.0857142,29.2498554 C13.8132215,29.2452566 12.8740317,29.1223072 12.6104198,27.6720261 L12.6104198,27.6720261 L9.62205761,15.5318537 L8.90348696,17.5236632 C8.59946341,18.2282354 7.8641005,18.6333606 7.11755042,18.5075692 L7.11755042,18.5075692 L1.24048171,18.4822382 C1.24048171,18.4822382 0.148201874,18.4542409 -1.70530257e-13,17.1210351 L-1.70530257e-13,17.1210351 L0.000343775145,17.0955421 C0.0058250125,16.9219665 0.0885110245,15.9139041 1.26539566,15.6838392 L1.26539566,15.6838392 L6.54715218,15.6585083 L8.60583086,10.2630242 C8.60583086,10.2630242 9.02412291,9.35644422 9.91709117,9.40577284 C10.8100595,9.45510145 11.0578876,10.1363696 11.0578876,10.1363696 C11.0578876,10.1363696 11.0584028,10.1367506 11.059422,10.1377247 L11.0714996,10.1523871 C11.1044106,10.1985474 11.1956636,10.3678713 11.3306298,10.9429592 C11.5024049,11.6748892 13.8836536,21.2313087 13.8836536,21.2313087 L13.8836536,21.2313087 L17.8515273,0.758599741 C17.8515273,0.758599741 18.2973558,0.0493342321 19.0172377,0.00267202759 Z M66.4591558,9.06329114 C68.7005368,9.06329114 70.3974313,9.65473315 71.5498395,10.8376172 C72.7022476,12.0205012 73.2784517,13.7948272 73.2784517,16.1605952 L73.2784517,16.1605952 L72.9612751,19.0811673 L63.6362845,19.0811673 L63.6563558,19.3478559 C63.7130181,19.951238 63.8384845,20.4223798 64.0327552,20.7612813 C64.2547788,21.1485973 64.6142455,21.4207653 65.1111554,21.5777853 C65.6080654,21.7348053 66.3005675,21.8133153 67.1886619,21.8133153 C67.8864503,21.8133153 68.7216819,21.7923793 69.6943566,21.7505073 C70.0834265,21.7337585 70.4302062,21.7170097 70.7346957,21.7002609 L71.1597123,21.6751377 C71.4219116,21.6583889 71.6418207,21.6416401 71.8194395,21.6248913 L71.8194395,21.6248913 L72.7075339,21.5306793 L72.7709692,24.6396753 L72.2240742,24.7697511 C70.0545115,25.2692419 68.1011544,25.5189873 66.3640028,25.5189873 C63.8900257,25.5189873 62.1032645,24.9013753 61.0037191,23.6661513 C59.9041737,22.4309273 59.354401,20.4315393 59.354401,17.6679872 C59.354401,14.7788192 59.9306051,12.6224112 61.0830132,11.1987632 C62.2354214,9.77511515 64.0274689,9.06329114 66.4591558,9.06329114 Z M45.5001812,4 L49.1624216,21.2002978 L50.5590387,21.2002978 L54.221279,4 L58.7214896,4 L53.8178119,24.8860759 L45.9036484,24.8860759 L40.9999706,4 L45.5001812,4 Z M78.6564755,4 L82.5642152,11.6787044 L86.5649963,4 L90.9999706,4 L84.9212645,14.6580417 L90.9999706,24.8860759 L86.2548582,24.8860759 L82.3471185,17.6680938 L78.3463374,24.8860759 L73.9113631,24.8860759 L79.9900692,14.8730454 L73.9113631,4 L78.6564755,4 Z M66.0822857,12.8607595 C65.0286529,12.8607595 64.2823296,13.1022911 63.8433159,13.5853543 C63.4043023,14.0684175 63.1738201,14.8817382 63.1518694,16.0253165 L63.1518694,16.0253165 L68.8480719,16.0253165 C68.8480719,14.8423045 68.6450281,14.0191254 68.2389404,13.555779 C67.8328528,13.0924327 67.1139679,12.8607595 66.0822857,12.8607595 Z M19.2401519,7.71660104 L17.9511831,14.8265878 L21.2240888,14.8265878 L19.2401519,7.71660104 Z" id="path-2"></path>
    </defs>
    <g id="All" stroke="none" stroke-width="1" fill="none" fill-rule="evenodd">
        <g id="Combined-Shape">
            <use fill="url(#linearGradient-1)" xlink:href="#path-2"></use>
            <use fill-opacity="0.087824" fill="#000000" style="mix-blend-mode: darken;" xlink:href="#path-2"></use>
        </g>
    </g>
</svg>